<svg width="209" height="207" viewBox="0 0 209 207" fill="#0e1525" xmlns="http://www.w3.org/2000/svg">
<rect x="2.5" y="2.5" width="195" height="195" rx="97.5" stroke="#27ae60" stroke-width="15"/>
<mask id="path-2-outside-1_10_5" maskUnits="userSpaceOnUse" x="65" y="41" width="96" height="132" fill="#27ae60">
<rect fill="#27ae60" x="65" y="41" width="96" height="132"/>
<path d="M155.136 82.6C155.136 88.7833 153.678 94.6167 150.761 100.1C147.845 105.583 143.178 110.075 136.761 113.575C130.345 116.958 122.12 118.65 112.086 118.65H90.0364V168H70.0864V46.375H112.086C121.42 46.375 129.295 48.0083 135.711 51.275C142.245 54.425 147.086 58.7417 150.236 64.225C153.503 69.7083 155.136 75.8333 155.136 82.6ZM112.086 102.375C119.67 102.375 125.328 100.683 129.061 97.3C132.795 93.8 134.661 88.9 134.661 82.6C134.661 69.3 127.136 62.65 112.086 62.65H90.0364V102.375H112.086Z"/>
</mask>
<path d="M150.761 100.1L146.347 97.7519L146.347 97.7519L150.761 100.1ZM136.761 113.575L139.093 117.998L139.125 117.981L139.156 117.964L136.761 113.575ZM90.0364 118.65V113.65H85.0364V118.65H90.0364ZM90.0364 168V173H95.0364V168H90.0364ZM70.0864 168H65.0864V173H70.0864V168ZM70.0864 46.375V41.375H65.0864V46.375H70.0864ZM135.711 51.275L133.443 55.7308L133.491 55.7553L133.54 55.7788L135.711 51.275ZM150.236 64.225L145.901 66.7156L145.921 66.75L145.941 66.784L150.236 64.225ZM129.061 97.3L132.419 101.005L132.45 100.977L132.481 100.948L129.061 97.3ZM90.0364 62.65V57.65H85.0364V62.65H90.0364ZM90.0364 102.375H85.0364V107.375H90.0364V102.375ZM150.136 82.6C150.136 87.9607 148.881 92.9882 146.347 97.7519L155.176 102.448C158.475 96.2452 160.136 89.606 160.136 82.6H150.136ZM146.347 97.7519C143.966 102.228 140.08 106.069 134.367 109.186L139.156 117.964C146.276 114.081 151.724 108.938 155.176 102.448L146.347 97.7519ZM134.429 109.152C128.954 112.039 121.602 113.65 112.086 113.65V123.65C122.637 123.65 131.736 121.877 139.093 117.998L134.429 109.152ZM112.086 113.65H90.0364V123.65H112.086V113.65ZM85.0364 118.65V168H95.0364V118.65H85.0364ZM90.0364 163H70.0864V173H90.0364V163ZM75.0864 168V46.375H65.0864V168H75.0864ZM70.0864 51.375H112.086V41.375H70.0864V51.375ZM112.086 51.375C120.857 51.375 127.906 52.9119 133.443 55.7308L137.98 46.8192C130.684 43.1048 121.982 41.375 112.086 41.375V51.375ZM133.54 55.7788C139.303 58.5575 143.324 62.2298 145.901 66.7156L154.572 61.7344C150.849 55.2535 145.186 50.2924 137.883 46.7711L133.54 55.7788ZM145.941 66.784C148.718 71.4463 150.136 76.6778 150.136 82.6H160.136C160.136 74.9888 158.288 67.9703 154.532 61.666L145.941 66.784ZM112.086 107.375C120.301 107.375 127.397 105.556 132.419 101.005L125.704 93.5951C123.259 95.8103 119.038 97.375 112.086 97.375V107.375ZM132.481 100.948C137.448 96.2912 139.661 89.9395 139.661 82.6H129.661C129.661 87.8605 128.141 91.3088 125.642 93.6523L132.481 100.948ZM139.661 82.6C139.661 75.0079 137.485 68.4478 132.329 63.8908C127.29 59.4381 120.241 57.65 112.086 57.65V67.65C118.982 67.65 123.22 69.1869 125.707 71.3841C128.075 73.4772 129.661 76.892 129.661 82.6H139.661ZM112.086 57.65H90.0364V67.65H112.086V57.65ZM85.0364 62.65V102.375H95.0364V62.65H85.0364ZM90.0364 107.375H112.086V97.375H90.0364V107.375Z" fill="#27ae60" mask="url(#path-2-outside-1_10_5)"/>
</svg>
